<svg id="Ebene_1" data-name="Ebene 1" xmlns="http://www.w3.org/2000/svg" viewBox="0 0 64 64"><path d="M49.28,50.26a5.87,5.87,0,1,0,5.87,5.87A5.88,5.88,0,0,0,49.28,50.26Zm0,7.83a2,2,0,1,1,2-2A2,2,0,0,1,49.28,58.09Z"/><path d="M25.8,50.26a5.87,5.87,0,1,0,5.87,5.87A5.88,5.88,0,0,0,25.8,50.26Zm0,7.83a2,2,0,1,1,2-2A2,2,0,0,1,25.8,58.09Z"/><path d="M16.67,32a15,15,0,1,0-15-15A15,15,0,0,0,16.67,32Zm0-26.09A11.09,11.09,0,1,1,5.59,17,11.1,11.1,0,0,1,16.67,5.91Z"/><path d="M15.37,20.26H23.2a2,2,0,0,0,0-3.91H16.67V10.48a2,2,0,1,0-3.91,0V18.3C12.76,19.48,14.33,20.26,15.37,20.26Z"/><path d="M58.65,34.88,46,25.17V18.3a4.57,4.57,0,0,0-4.56-4.56H33.63a2,2,0,1,0,0,3.91h7.83a.66.66,0,0,1,.65.65V44.39a.65.65,0,0,1-.65.65H16V34a2,2,0,1,0-3.91,0V49h-.65V41.13H1V45H4.93V49H8.2v3.91h3.91v3.26a3.26,3.26,0,0,0,3.26,3.26H18a2,2,0,0,0,0-3.91H16V49H41.46A4.57,4.57,0,0,0,46,44.39V30.1L56.27,38a7.24,7.24,0,0,1,2.8,5.69V55.48h-2a2,2,0,1,0,0,3.91h2.61A3.26,3.26,0,0,0,63,56.13V43.67A11.17,11.17,0,0,0,58.65,34.88Z"/><path d="M41.46,55.48H33.63a2,2,0,1,0,0,3.91h7.83a2,2,0,0,0,0-3.91Z"/></svg>