<svg id="Ebene_1" data-name="Ebene 1" xmlns="http://www.w3.org/2000/svg" viewBox="0 0 64 64"><path d="M59.86,2H20.06a2.09,2.09,0,0,0-1.51.63L2.63,18.55s0,.07-.08.11a2.18,2.18,0,0,0-.38.57,2.12,2.12,0,0,0-.17.83v39.8A2.14,2.14,0,0,0,4.14,62h39.8a2.12,2.12,0,0,0,.83-.17,2.09,2.09,0,0,0,.59-.39l.09-.07L61.37,45.45A2.15,2.15,0,0,0,62,43.94V4.14A2.14,2.14,0,0,0,59.86,2ZM54.7,6.27,43.06,17.92H27.21L38.86,6.27Zm1.7,4.35v7.23L48.64,25.6l-2.16-5.05ZM24.85,22.2H41.8V57.72H24.85Zm21.23,8.2a2.13,2.13,0,0,0,1.44,1.05,2.69,2.69,0,0,0,.4,0,2.13,2.13,0,0,0,1.51-.62l8.29-8.29V43.06L46.08,54.7ZM32.81,6.27,21.2,17.88s0,0,0,0H9.3L20.94,6.27ZM6.27,22.2h14.3V57.72H6.27Z"/></svg>