<svg id="Ebene_1" data-name="Ebene 1" xmlns="http://www.w3.org/2000/svg" viewBox="0 0 64 64"><path d="M61.78,58.35,52.9,40.59A2.08,2.08,0,0,0,51,39.44h-14a2.08,2.08,0,0,0,0,4.16H49.75l6.8,13.6H49.28c-.3-6.7-7.43-7.89-15.2-8.39V29.46a13.5,13.5,0,1,0-4.16,0V48.57c-1.35-.07-2.72-.14-4.11-.24-2.81-.22-4.68-.94-5.25-2a3.5,3.5,0,0,1,.08-2.68h6.28a2.08,2.08,0,0,0,0-4.16H13a2.08,2.08,0,0,0-1.87,1.15L2.22,58.36a2.07,2.07,0,0,0,1.86,3H59.92a2.08,2.08,0,0,0,1.86-3ZM22.66,16.14A9.34,9.34,0,1,1,32,25.48,9.35,9.35,0,0,1,22.66,16.14ZM16.33,43.6a7,7,0,0,0,.52,4.57c1.3,2.52,4.21,4,8.65,4.3,1.72.13,3.42.22,5.21.32,9.31.48,14,1.11,14.41,4.41H7.45l6.8-13.6Z"/><path d="M33.62,19.29a4.78,4.78,0,0,1-4.77-4.77,2.08,2.08,0,1,0-4.16,0,9,9,0,0,0,8.93,8.93,2.08,2.08,0,1,0,0-4.16Z"/></svg>