<svg id="Ebene_1" data-name="Ebene 1" xmlns="http://www.w3.org/2000/svg" viewBox="0 0 64 64"><path d="M44.39,19.06,32,31.45l-7.06-7.06a1.33,1.33,0,0,0-1.88,1.89L32,35.22,46.28,20.94a1.33,1.33,0,1,0-1.89-1.88Z"/><path d="M32,2A30,30,0,1,0,62,32,30,30,0,0,0,32,2Zm.67,57.3v-6a1.34,1.34,0,0,0-2.67,0v5.9A27.33,27.33,0,0,1,4.73,33.33h5.94a1.33,1.33,0,1,0,0-2.66H4.73A27.33,27.33,0,0,1,30,4.77v5.9a1.34,1.34,0,0,0,2.67,0v-6a27.34,27.34,0,0,1,26.6,26H53.33a1.33,1.33,0,0,0,0,2.66h5.94A27.34,27.34,0,0,1,32.67,59.3Z"/></svg>