<svg id="Ebene_1" data-name="Ebene 1" xmlns="http://www.w3.org/2000/svg" viewBox="0 0 64 64"><path d="M46.49,39.14A20.88,20.88,0,0,1,40,35.82a23.83,23.83,0,0,0,5.42-8.41l.19-.11a2.63,2.63,0,0,0,1-.86c1.73-3.07,2.19-5.53,1.35-7.31a3.68,3.68,0,0,0-1.51-1.67,25.82,25.82,0,0,0-.74-6.27C45.68,11.1,43.1,2,32,2s-13.68,9.1-13.71,9.19a25.82,25.82,0,0,0-.74,6.27A3.68,3.68,0,0,0,16,19.13c-.84,1.78-.38,4.24,1.35,7.31a2.63,2.63,0,0,0,1,.86l.19.11A23.75,23.75,0,0,0,24,35.82a20.73,20.73,0,0,1-6.49,3.32c-6,1.91-14.13,5.94-14.75,18.94a1.36,1.36,0,0,0,1.07,1.4A149.91,149.91,0,0,0,32,62a149.91,149.91,0,0,0,28.17-2.52,1.36,1.36,0,0,0,1.07-1.4C60.62,45.08,52.52,41.05,46.49,39.14ZM21.06,26.24c-.17-.59-.64-.88-1.23-1.25l-.2-.12c-1.57-2.87-1.33-4.14-1.14-4.56a1.05,1.05,0,0,1,.68-.62,1.35,1.35,0,0,0,1.11-1.41,23.72,23.72,0,0,1,.64-6.38c0-.07,2-7.18,11.08-7.18s11,6.89,11.08,7.17a24.24,24.24,0,0,1,.64,6.39,1.39,1.39,0,0,0,1.08,1.4,1.07,1.07,0,0,1,.71.63c.19.42.43,1.69-1.14,4.56l-.2.12c-.59.37-1.06.66-1.23,1.25-.65,2.25-5,10.61-10.94,10.61S21.71,28.49,21.06,26.24ZM32,59.28A151.87,151.87,0,0,1,5.56,57c.9-10.18,6.93-13.46,12.77-15.3a22.72,22.72,0,0,0,7.8-4.15,10.32,10.32,0,0,0,5.87,2,10.26,10.26,0,0,0,5.87-2,22.51,22.51,0,0,0,7.8,4.16c5.84,1.84,11.87,5.12,12.77,15.3A151.64,151.64,0,0,1,32,59.28Z"/></svg>