<svg id="Ebene_1" data-name="Ebene 1" xmlns="http://www.w3.org/2000/svg" viewBox="0 0 64 64"><path d="M30.7,22.78V54.17a1.3,1.3,0,1,0,2.6,0V22.78a10.43,10.43,0,1,0-2.6,0ZM32,4.61a7.83,7.83,0,1,1-7.83,7.82A7.83,7.83,0,0,1,32,4.61Z"/><path d="M32,19.22a1.31,1.31,0,0,0,0-2.61,4.18,4.18,0,0,1-4.17-4.18,1.31,1.31,0,0,0-2.61,0A6.79,6.79,0,0,0,32,19.22Z"/><path d="M38.6,49.16a1.31,1.31,0,0,0-.16,2.61c11.41.73,15.53,3,15.74,3.69-.39,1.37-8.35,3.93-22.18,3.93S10.21,56.83,9.82,55.5c.28-1,5.72-3.37,17-3.94a1.3,1.3,0,0,0-.13-2.6c-3.26.16-19.5,1.25-19.5,6.52S22.79,62,32,62s24.78-1.37,24.78-6.52C56.78,50.83,44.07,49.51,38.6,49.16Z"/></svg>