<svg id="Ebene_1" data-name="Ebene 1" xmlns="http://www.w3.org/2000/svg" viewBox="0 0 64 64"><path d="M61.86,59.46,52.73,41.2a1.3,1.3,0,0,0-1.16-.72H37.22a1.31,1.31,0,1,0,0,2.61H50.76l7.83,15.65H49c.28-7.16-7.15-8.18-15.65-8.68V28.67a13,13,0,1,0-2.6,0V49.92c-1.67-.09-3.39-.18-5.12-.31-3.24-.24-5.34-1.12-6.08-2.55s-.14-3.07.26-4h7a1.31,1.31,0,1,0,0-2.61H12.43a1.3,1.3,0,0,0-1.16.72L2.14,59.46A1.3,1.3,0,0,0,3.3,61.35H60.7a1.3,1.3,0,0,0,1.16-1.89ZM21.57,15.7A10.44,10.44,0,1,1,32,26.13,10.45,10.45,0,0,1,21.57,15.7ZM13.24,43.09H17a6.82,6.82,0,0,0,.2,5.15c1.19,2.32,3.95,3.65,8.21,4,1.81.14,3.6.23,5.33.32,9.84.52,15.86,1.09,15.64,6.15,0,0,0,0,0,.06H5.42Z"/><path d="M33.3,22.74a1.3,1.3,0,0,0-1.3-1.3,5.75,5.75,0,0,1-5.74-5.74,1.31,1.31,0,1,0-2.61,0A8.36,8.36,0,0,0,32,24,1.3,1.3,0,0,0,33.3,22.74Z"/></svg>