<svg id="Ebene_1" data-name="Ebene 1" xmlns="http://www.w3.org/2000/svg" viewBox="0 0 64 64"><path d="M60.66,37.27c0-3.17-9.08-3.64-14.49-3.64a57.15,57.15,0,0,0-9.89.76V33.32a1.29,1.29,0,0,0-.69-1.14,1.13,1.13,0,0,0,0-.18A1.32,1.32,0,0,0,35,30.88V28.05h0a1.78,1.78,0,0,0,.66-1.31A1.32,1.32,0,0,0,35,25.61v-2c1.2-.52,2-1.21,2-2.12a1.29,1.29,0,0,0-.66-1.12V17.5a1.28,1.28,0,0,0-.69-1.13,1.35,1.35,0,0,0,0-.18A1.3,1.3,0,0,0,35,15.07V13c1.2-.52,2-1.2,2-2.12a1.29,1.29,0,0,0-.66-1.11V7h0a1.75,1.75,0,0,0,.66-1.31C36.94,2.47,27.86,2,22.45,2S8,2.47,8,5.64c0,.07,0,.12,0,.18A1.32,1.32,0,0,0,7.29,7v4A1.32,1.32,0,0,0,6,12.23v4A2.18,2.18,0,0,0,7.29,18v3.48A1.32,1.32,0,0,0,6,22.78v3.95a1.64,1.64,0,0,0,.18.69,1.36,1.36,0,0,0-.18.63V32a2.16,2.16,0,0,0,1.32,1.79v3.48a1.48,1.48,0,0,0,.18.69,1.36,1.36,0,0,0-.18.63v3.95A1.32,1.32,0,0,0,6,43.86v4a1.32,1.32,0,0,0-1.32,1.32v4A1.31,1.31,0,0,0,3.34,54.4v4c0,3.17,9.08,3.64,14.49,3.64h.66c4.11,0,10.33-.28,13.09-1.79C34.29,61.72,40.41,62,44.52,62c5.41,0,14.17-.47,14.17-3.64V54.91A2.21,2.21,0,0,0,60,53.09v-4a1.32,1.32,0,0,0-1.31-1.32V44.35A2.17,2.17,0,0,0,60,42.54V38.59h0A1.75,1.75,0,0,0,60.66,37.27Zm-3.78,0a45.44,45.44,0,0,1-10.71,1,54.58,54.58,0,0,1-9.29-.7,1.07,1.07,0,0,0,.06-.31,1.55,1.55,0,0,0-.06-.31,54.49,54.49,0,0,1,9.29-.7A45.44,45.44,0,0,1,56.88,37.27ZM45.82,54.09c-6.89,0-10.66-.89-11.6-1.44a1.36,1.36,0,0,0-.57-.68V50.45a49.29,49.29,0,0,0,10.87,1c4.13,0,10.21-.28,12.85-1.83v3C57.37,53.23,52.57,54.09,45.82,54.09ZM29.69,58c0,.54-4.88,1.37-11.41,1.41-6.81,0-10.84-.91-11.73-1.45A1.25,1.25,0,0,0,6,57.23V54.88c2.71,1.56,9,1.85,13.18,1.85h.66A54.86,54.86,0,0,0,29.69,56Zm-7.9-17h.66c3.33,0,8.06-.18,11.2-1.06v2.29c0,.54-4.89,1.37-11.42,1.41-6.8,0-10.83-.91-11.72-1.46a1.32,1.32,0,0,0-.58-.67V39.64C13,40.7,18.2,40.91,21.79,40.91Zm0,5.28h.66a54.12,54.12,0,0,0,9.88-.76v2c0,.54-4.88,1.37-11.42,1.41-6.8,0-10.83-.91-11.72-1.46a1.32,1.32,0,0,0-.58-.67V44.33C11.32,45.9,17.63,46.19,21.79,46.19Zm-1.32,5.27h.66A54,54,0,0,0,31,50.7v2c0,.54-4.88,1.37-11.42,1.41-6.8,0-10.83-.91-11.72-1.45A1.26,1.26,0,0,0,7.29,52V49.6C10,51.17,16.31,51.46,20.47,51.46ZM32.33,31.6c0,.54-4.88,1.37-11.42,1.4-6.8,0-10.83-.91-11.72-1.45a1.38,1.38,0,0,0-.58-.68V29.1c3.1,1.06,8.28,1.27,11.86,1.27h.66c3.34,0,8.06-.18,11.2-1.06Zm0-5.28c0,.54-4.88,1.38-11.42,1.41-6.8,0-10.83-.91-11.72-1.45a1.38,1.38,0,0,0-.58-.68V23.25c2.71,1.57,9,1.85,13.18,1.85h.66a55,55,0,0,0,9.88-.75Zm0-10.54c0,.54-4.88,1.37-11.42,1.41-6.8,0-10.83-.91-11.72-1.45a1.34,1.34,0,0,0-.58-.68V12.71c2.71,1.56,9,1.85,13.18,1.85h.66a54.12,54.12,0,0,0,9.88-.76Zm1.32-5.27c0,.54-4.89,1.37-11.42,1.41-6.8,0-10.83-.91-11.72-1.46a1.32,1.32,0,0,0-.58-.67v-2c3,1.28,8.66,1.53,12.52,1.53a47.36,47.36,0,0,0,11.2-1.07ZM22.45,4.64a45.43,45.43,0,0,1,10.7,1,45.27,45.27,0,0,1-10.7,1,45.31,45.31,0,0,1-10.71-1A45.47,45.47,0,0,1,22.45,4.64Zm-2,15.19h.66c3.85,0,9.54-.25,12.52-1.53v2.75c0,.54-4.89,1.37-11.42,1.41-6.8,0-10.83-.91-11.72-1.45a1.34,1.34,0,0,0-.58-.68v-1.4A50.73,50.73,0,0,0,20.47,19.83Zm0,15.81h.66c3.85,0,9.54-.24,12.52-1.52v2.75c0,.54-4.89,1.37-11.42,1.41-6.8,0-10.83-.91-11.72-1.46a1.38,1.38,0,0,0-.58-.68V34.75A51.41,51.41,0,0,0,20.47,35.64ZM56.05,58c0,.55-4.79,1.41-11.55,1.41s-10.66-.89-11.6-1.44a1.31,1.31,0,0,0-.57-.68v-2a4.15,4.15,0,0,0,.56-.27c2.72,1.52,8.84,1.8,13,1.8a49.3,49.3,0,0,0,10.21-.86Zm0-10.54c0,.55-4.79,1.41-11.55,1.41a51.08,51.08,0,0,1-8.94-.68,1.2,1.2,0,0,0,.06-.33A1.3,1.3,0,0,0,35,46.7V45.14a48.77,48.77,0,0,0,10.87,1,50,50,0,0,0,10.21-.86Zm1.32-5.27c0,.54-4.79,1.39-11.55,1.39a51.09,51.09,0,0,1-8.93-.69,1.45,1.45,0,0,0,0-.3,1.29,1.29,0,0,0-.66-1.11V40.15a57,57,0,0,0,9.89.76c3.33,0,8.06-.18,11.2-1.06Z"/></svg>