<svg id="Ebene_1" data-name="Ebene 1" xmlns="http://www.w3.org/2000/svg" viewBox="0 0 64 64"><path d="M26.94,9.4l4-4V26.71a1,1,0,0,0,1.74.72,1,1,0,0,0,.3-.72V6.09L36.7,9.77a1,1,0,0,0,1.45-1.45L32.74,2.91s0,0,0,0l-.34-.33c-.4-.4-.68-.77-1.08-.37L25.49,8a1,1,0,0,0,0,1.44A1,1,0,0,0,26.94,9.4Z"/><path d="M39.16,30.8H24.84a1,1,0,1,0,0,2H39.16a1,1,0,0,0,1-1A1,1,0,0,0,39.16,30.8Z"/><path d="M37.06,54.23l-4,4V36.93a1,1,0,0,0-2,0V59l-4.4-4.4a1,1,0,0,0-1.45,0,1,1,0,0,0,0,1.44l5.79,5.79c.4.4,1.4,0,1.8-.37l5.79-5.78a1,1,0,0,0-1.45-1.45Z"/></svg>