<svg id="Ebene_1" data-name="Ebene 1" xmlns="http://www.w3.org/2000/svg" viewBox="0 0 64 64"><path d="M59.28,33.07,54.39,27a1.25,1.25,0,0,0-1-.46H36.29V24H51a1.22,1.22,0,0,0,1.22-1.22V10.57A1.21,1.21,0,0,0,51,9.35H36.29V5.67a3.68,3.68,0,0,0-7.35,0V9.35H10.57a1.25,1.25,0,0,0-1,.46L4.72,15.93a1.22,1.22,0,0,0,0,1.53l4.89,6.12a1.25,1.25,0,0,0,1,.46H28.94v2.45H16.69a1.22,1.22,0,0,0-1.22,1.22V40a1.22,1.22,0,0,0,1.22,1.22H28.94v13l-1.58-1.59A1.23,1.23,0,0,0,25.41,54c.55,1.06,1.51,3.65.94,4.88a1.29,1.29,0,0,1-1,.7A1.22,1.22,0,0,0,25.57,62a1.15,1.15,0,0,0,.26,0,3.68,3.68,0,0,0,2.73-2,4.91,4.91,0,0,0,.4-2.29l.33.34h0l2.45,2.45a1.23,1.23,0,0,0,2-.57c.45-1.74,1.84-5.6,4-7.62-.7,2.58-1,6.2,1.66,8.29a1.23,1.23,0,0,0,1.51-1.94c-2.8-2.17.1-8.22.13-8.28A1.2,1.2,0,0,0,41,49.05a1.23,1.23,0,0,0-1.15-.51,6.51,6.51,0,0,0-3.52,1.7V41.18H53.43a1.25,1.25,0,0,0,1-.46l4.89-6.12A1.22,1.22,0,0,0,59.28,33.07ZM31.39,5.67a1.23,1.23,0,0,1,2.45,0V9.35H31.39Zm-24.15,11,3.92-4.89h38.6v9.79H11.16ZM31.39,24h2.45v2.45H31.39Zm2.45,29.3a22.46,22.46,0,0,0-1.79,3.91l-.66-.66V41.18h2.45Zm19-14.61H17.92V28.94H52.84l3.92,4.9Z"/></svg>