<svg id="Ebene_1" data-name="Ebene 1" xmlns="http://www.w3.org/2000/svg" viewBox="0 0 64 64"><path d="M32,53.25C9,53.25,2.13,32.53,2.06,32.32a1.2,1.2,0,0,1,0-.75C2.12,31.36,8.85,10.75,32,10.75c22.71,0,29.87,20.65,29.94,20.85a1.3,1.3,0,0,1,0,.78C61.87,32.59,55,53.25,32,53.25ZM4.57,31.94c1,2.76,7.71,18.81,27.43,18.81,19.47,0,26.39-16,27.42-18.75-1.07-2.81-8-18.75-27.42-18.75A28.5,28.5,0,0,0,4.57,31.94Z"/><path d="M32,45.75a13.75,13.75,0,1,1,9.72-4A13.64,13.64,0,0,1,32,45.75Zm0-25A11.25,11.25,0,1,0,40,24,11.2,11.2,0,0,0,32,20.75Z"/><path d="M9.5,55.75a1.21,1.21,0,0,1-.88-.37,1.24,1.24,0,0,1,0-1.76l45-45a1.24,1.24,0,0,1,1.76,1.76l-45,45A1.21,1.21,0,0,1,9.5,55.75Z"/></svg>