<svg id="Ebene_1" data-name="Ebene 1" xmlns="http://www.w3.org/2000/svg" viewBox="0 0 64 64"><path d="M61.29,2.39H18.9a1.44,1.44,0,0,0-.54.1,1.62,1.62,0,0,0-.46.31L2.39,18.31A1.4,1.4,0,0,0,2,19.53V60.2a1.41,1.41,0,0,0,1.41,1.41h40.9a1.28,1.28,0,0,0,.34-.07,1.15,1.15,0,0,0,.36.07,1.4,1.4,0,0,0,1-.41L61.45,45.78A1.38,1.38,0,0,0,62,44.69V3.8C62,3,62.07,2.39,61.29,2.39ZM44.43,17.92l-.1,0h-24V16.49a1.41,1.41,0,0,0-2.82,0V17.9H6.79L17.62,7.07a1.4,1.4,0,0,0,2.73-.45V5.21H57.14ZM42.92,58.79H7.4a1.39,1.39,0,0,0-.27-1.58,1.42,1.42,0,0,0-2,0l-.29.29V20.72H17.53v1.41a1.41,1.41,0,0,0,2.82,0V20.72H42.92Zm2.82-1.29V46.1h4.93a1.41,1.41,0,1,0,0-2.82H45.74V20.5a1.81,1.81,0,0,0,.29-.19L59.18,7.16V43.28H57.72A1.4,1.4,0,0,0,57.24,46Z"/><path d="M32.34,46.1H38a1.41,1.41,0,1,0,0-2.82H32.34a1.41,1.41,0,1,0,0,2.82Z"/><path d="M20.35,43.28V41.87a1.41,1.41,0,0,0-2.82,0v2.82s0,.07,0,.1l-.89.9a1.41,1.41,0,0,0,0,2,1.39,1.39,0,0,0,2,0l1.58-1.58h2.24a1.41,1.41,0,1,0,0-2.82Z"/><path d="M18.94,36.23a1.41,1.41,0,0,0,1.41-1.41V29.18a1.41,1.41,0,0,0-2.82,0v5.64A1.41,1.41,0,0,0,18.94,36.23Z"/><path d="M12.54,49.8,9.25,53.1a1.41,1.41,0,0,0,0,2,1.41,1.41,0,0,0,2,0l3.3-3.29a1.41,1.41,0,0,0-2-2Z"/></svg>