<svg id="Ebene_1" data-name="Ebene 1" xmlns="http://www.w3.org/2000/svg" viewBox="0 0 64 64"><path d="M60.64,2H19.73a1.37,1.37,0,0,0-1,.4L2.4,18.76a1.37,1.37,0,0,0-.3.45v0a1.35,1.35,0,0,0-.1.5H2V60.64A1.36,1.36,0,0,0,3.36,62H44.27a1.35,1.35,0,0,0,.5-.1h0a1.37,1.37,0,0,0,.45-.3L61.6,45.24a1.37,1.37,0,0,0,.4-1V3.36A1.36,1.36,0,0,0,60.64,2ZM43.71,18.36H25.06L38.7,4.73H57.34ZM57.91,8V17.8l-9.09,9.08L45.89,20Zm-15,13.07V59.27H23.82V21.09ZM20.29,4.73H34.84L21.49,18.08a1.73,1.73,0,0,0-.19.28H6.66ZM4.73,21.09H21.09V59.27H4.73ZM45.64,57.34v-31l1.47,3.44a1.34,1.34,0,0,0,1,.8,1.07,1.07,0,0,0,.25,0,1.37,1.37,0,0,0,1-.4l9.94-9.95V43.71Z"/></svg>