<svg id="Ebene_1" data-name="Ebene 1" xmlns="http://www.w3.org/2000/svg" viewBox="0 0 64 64"><path d="M43,4.53h0A23.84,23.84,0,0,0,11,15.19a1.61,1.61,0,0,0,.72,2.16,1.55,1.55,0,0,0,1.23.09,1.57,1.57,0,0,0,.93-.8,20.62,20.62,0,0,1,39,10.46l-.07,1.1H9.47a1.61,1.61,0,0,0-1.61,1.61v25A7.18,7.18,0,0,0,15,62H48.38a7.18,7.18,0,0,0,7.17-7.17V30.68l.1-.23a1.82,1.82,0,0,0,.12-.35A24,24,0,0,0,43,4.53Zm9.37,50.3a4,4,0,0,1-3.95,4H15a4,4,0,0,1-3.95-4V31.42H52.33Z"/><path d="M32,48.1a1.61,1.61,0,0,0,1.61-1.61V40.93a1.61,1.61,0,0,0-3.22,0v5.56A1.61,1.61,0,0,0,32,48.1Z"/></svg>