<svg id="Ebene_1" data-name="Ebene 1" xmlns="http://www.w3.org/2000/svg" viewBox="0 0 64 64"><path d="M55.58,34.71V11.23c0-2.18-1.12-3.31-3.3-3.31H42.39V6a4,4,0,1,0-7.92,0v2H21.28V6a4,4,0,1,0-7.91,0v2H7.44c-2.19,0-4.62,1.13-4.62,3.31V57.39A5.17,5.17,0,0,0,7.44,62H44.36c.15,0,.28-.36.41-.41a13.88,13.88,0,0,0,1.57-.08A15,15,0,0,0,61.18,46.26C61.18,41.68,59.53,37.49,55.58,34.71ZM37.11,6a1.32,1.32,0,0,1,2.64,0v6.45a1.32,1.32,0,0,1-2.64,0ZM16,6a1.32,1.32,0,1,1,2.64,0v6.45a1.32,1.32,0,1,1-2.64,0ZM7.44,59.36a2.71,2.71,0,0,1-2-2V11.23c0-.72,1.25-.67,2-.67h5.93v1.85a4,4,0,1,0,7.91,0V10.56H34.47v1.85a4,4,0,1,0,7.92,0V10.56h9.89c.72,0,.66-.05.66.67V32.87c-1.32-1.18-4.3-1.53-6.93-1.53-7.69,0-13.72,5.6-14.69,13.51h-4.1c-.73,0-2-.06-2,.67V50.8a1.32,1.32,0,0,0,2.64,0V47.49h3.33a16.85,16.85,0,0,0,6.6,11.87Zm38.9-.65A12.53,12.53,0,1,1,58.87,46.18,12.54,12.54,0,0,1,46.34,58.71Z"/><path d="M20.62,19.79H15.35c-.73,0-2-.05-2,.67v5.28a1.32,1.32,0,1,0,2.64,0V22.43h4.61a1.32,1.32,0,1,0,0-2.64Z"/><path d="M26.56,27.06a1.32,1.32,0,0,0,1.32-1.32V22.43h4.61a1.32,1.32,0,1,0,0-2.64H27.22c-.73,0-2-.05-2,.67v5.28A1.32,1.32,0,0,0,26.56,27.06Z"/><path d="M38.43,27.06a1.32,1.32,0,0,0,1.32-1.32V22.43h4.61a1.32,1.32,0,0,0,0-2.64H39.09c-.73,0-2-.05-2,.67v5.28A1.32,1.32,0,0,0,38.43,27.06Z"/><path d="M20.62,31.67H15.35c-.73,0-2-.06-2,.66v5.28a1.32,1.32,0,0,0,2.64,0V34.3h4.61a1.32,1.32,0,1,0,0-2.63Z"/><path d="M26.56,38.93a1.32,1.32,0,0,0,1.32-1.32V34.3h4.61a1.32,1.32,0,1,0,0-2.63H27.22c-.73,0-2-.06-2,.66v5.28A1.32,1.32,0,0,0,26.56,38.93Z"/><path d="M20.62,44.85H15.35c-.73,0-2-.06-2,.67V50.8a1.32,1.32,0,0,0,2.64,0V47.49h4.61a1.32,1.32,0,1,0,0-2.64Z"/><path d="M52.66,40.63l-9.61,9.62-3-3a1.32,1.32,0,0,0-1.86,1.86l4,4a1.32,1.32,0,0,0,1.87,0L54.53,42.5a1.32,1.32,0,1,0-1.87-1.87Z"/></svg>