<svg id="Ebene_1" data-name="Ebene 1" xmlns="http://www.w3.org/2000/svg" viewBox="0 0 64 64"><path d="M33.74,62H30.26a3.91,3.91,0,0,1-3.85-3.21L25.91,56a24.59,24.59,0,0,1-6.58-2.74L17,54.89a4,4,0,0,1-5-.45L9.56,52a3.91,3.91,0,0,1-.45-5l1.61-2.32A24.59,24.59,0,0,1,8,38.09l-2.77-.5A3.91,3.91,0,0,1,2,33.74V30.26a3.91,3.91,0,0,1,3.21-3.85L8,25.91a24.59,24.59,0,0,1,2.74-6.58L9.11,17a3.91,3.91,0,0,1,.45-5L12,9.56a4,4,0,0,1,5-.45l2.32,1.61A24.59,24.59,0,0,1,25.91,8l.5-2.77A3.91,3.91,0,0,1,30.26,2h3.48a3.91,3.91,0,0,1,3.85,3.21L38.09,8a24.59,24.59,0,0,1,6.58,2.74L47,9.11a4,4,0,0,1,5,.45L54.44,12a3.91,3.91,0,0,1,.45,5l-1.61,2.32A24.59,24.59,0,0,1,56,25.91l2.77.5A3.91,3.91,0,0,1,62,30.26v3.48a3.91,3.91,0,0,1-3.21,3.85l-2.77.5a24.59,24.59,0,0,1-2.74,6.58L54.89,47a3.91,3.91,0,0,1-.45,5L52,54.44a3.9,3.9,0,0,1-2.77,1.15h0a3.88,3.88,0,0,1-2.23-.7l-2.32-1.61A24.59,24.59,0,0,1,38.09,56l-.5,2.77A3.91,3.91,0,0,1,33.74,62ZM19.29,50.42a1.28,1.28,0,0,1,.71.21,22,22,0,0,0,7.32,3,1.29,1.29,0,0,1,1,1L29,58.32a1.3,1.3,0,0,0,1.28,1.07h3.48A1.3,1.3,0,0,0,35,58.32l.66-3.61a1.29,1.29,0,0,1,1-1,22,22,0,0,0,7.32-3,1.3,1.3,0,0,1,1.45,0l3,2.1a1.33,1.33,0,0,0,1.66-.15l2.46-2.46a1.3,1.3,0,0,0,.15-1.66l-2.1-3a1.3,1.3,0,0,1,0-1.45,22,22,0,0,0,3-7.32,1.32,1.32,0,0,1,1-1L58.32,35a1.3,1.3,0,0,0,1.07-1.28V30.26A1.3,1.3,0,0,0,58.32,29l-3.61-.65a1.32,1.32,0,0,1-1-1,22,22,0,0,0-3-7.32,1.3,1.3,0,0,1,0-1.45l2.1-3a1.3,1.3,0,0,0-.15-1.66L50.14,11.4a1.33,1.33,0,0,0-1.66-.15l-3,2.1a1.3,1.3,0,0,1-1.45,0,22,22,0,0,0-7.32-3,1.29,1.29,0,0,1-1-1L35,5.68a1.3,1.3,0,0,0-1.28-1.07H30.26A1.3,1.3,0,0,0,29,5.68l-.66,3.61a1.29,1.29,0,0,1-1,1,22,22,0,0,0-7.32,3,1.3,1.3,0,0,1-1.45,0l-3-2.1a1.33,1.33,0,0,0-1.66.15L11.4,13.86a1.3,1.3,0,0,0-.15,1.66l2.1,3a1.3,1.3,0,0,1,0,1.45,22,22,0,0,0-3,7.32,1.32,1.32,0,0,1-1,1L5.68,29a1.3,1.3,0,0,0-1.07,1.28v3.48A1.3,1.3,0,0,0,5.68,35l3.61.65a1.32,1.32,0,0,1,1,1,22,22,0,0,0,3,7.32,1.3,1.3,0,0,1,0,1.45l-2.1,3a1.3,1.3,0,0,0,.15,1.66l2.46,2.46a1.33,1.33,0,0,0,1.66.15l3-2.1A1.32,1.32,0,0,1,19.29,50.42Z"/><path d="M32,43.74A11.74,11.74,0,1,1,43.74,32,11.76,11.76,0,0,1,32,43.74Zm0-20.87A9.13,9.13,0,1,0,41.13,32,9.15,9.15,0,0,0,32,22.87Z"/></svg>